<svg width="40" height="40" viewBox="0 0 40 40" fill="none" xmlns="http://www.w3.org/2000/svg">
<path fill-rule="evenodd" clip-rule="evenodd" d="M40 0H0V40H40V0V0ZM10.071 13C13.116 13 14.14 15.4501 14.141 17.0601L14.142 23.1599C14.142 24.7699 13.144 27.22 9.987 27.22H6V13H10.071V13ZM22.7922 15.54H18.2142V18.8401H21.0122V21.3799H18.2142V24.6799H22.7932V27.22H17.4502C16.4922 27.25 15.6942 26.49 15.6702 25.53V14.78C15.6472 13.82 16.4062 13.03 17.3642 13H22.7932L22.7922 15.54V15.54ZM27.619 25.4399C28.529 27.5599 30.561 28.0899 31.695 25.4399L34.999 13H32.2L29.66 22.77L27.107 13H24.309L27.619 25.4399V25.4399ZM11.215 24.2601C11.548 24.0101 11.715 23.64 11.715 23.14V17.16C11.714 16.66 11.546 16.2801 11.214 16.0301C10.881 15.7801 10.546 15.66 10.213 15.66H8.71395V24.64H10.214C10.547 24.64 10.882 24.5101 11.215 24.2601V24.2601Z" fill="#08090A"/>
</svg>
