<svg width="40" height="40" viewBox="0 0 40 40" fill="none" xmlns="http://www.w3.org/2000/svg">
<path fill-rule="evenodd" clip-rule="evenodd" d="M40 0H0V40H40V0V0ZM12.4559 20.29C12.4439 20.29 12.0129 19.3799 12.0489 19.3799C11.7549 18.53 11.6239 17.55 11.6239 16.4601C11.6239 14.5701 12.2139 13.8301 13.0119 12.8301C13.0279 12.8102 13.0449 12.79 13.0609 12.7701C12.4309 10.5701 13.2869 9.06012 13.2869 9.06012C13.2869 9.06012 14.6099 8.7901 17.1109 10.55C18.4659 9.9801 22.0809 9.92999 23.7899 10.42C24.8389 9.73999 26.7589 8.78009 27.5329 9.05011C27.7429 9.38013 28.1949 10.34 27.8079 12.47C27.8569 12.5601 27.9459 12.66 28.0569 12.8C28.5369 13.3701 29.4379 14.4601 29.4419 16.73C29.4209 17.7701 29.3109 18.64 29.1069 19.3799C29.1469 19.3799 28.8469 20.3 28.7769 20.3C27.8709 22.2501 26.0099 22.98 23.0049 23.29C23.9789 23.8901 24.2579 24.65 24.2579 26.6899C24.2579 27.9299 24.2479 28.52 24.2409 28.89L24.2401 28.9386V28.9387C24.2365 29.1614 24.2341 29.312 24.2369 29.48C24.2429 29.9601 24.6919 30.29 25.0189 30.5201C25.0304 30.5287 25.0417 30.5373 25.0528 30.5457C25.2342 30.6827 25.37 30.7853 25.3549 30.8702C25.3119 31.1202 24.3919 31.08 23.9619 30.9299C22.7429 30.5099 22.8649 29.5201 22.8649 29.5201L22.8249 26.78C22.8249 26.78 22.9079 25.3102 22.3539 25.3102V29.79C22.3539 30.3901 22.6219 30.7401 22.8249 31.0001C22.9479 31.1501 23.0469 31.28 23.0469 31.42C23.0469 32.03 21.7819 31.36 21.3909 30.97C20.839 30.4312 20.8578 29.3147 20.8738 28.3659L20.8739 28.3602C20.8759 28.2902 20.8769 28.23 20.8779 28.16C20.8919 27.21 20.8689 25.1299 20.8689 25.1299L20.4659 25.14C20.4659 25.14 20.6309 29.6801 20.2529 30.5001C19.7639 31.5701 18.2879 31.9301 18.2879 31.4501C18.2879 31.3101 18.3559 31.2499 18.4499 31.16C18.5729 31.0599 18.7379 30.91 18.8529 30.5001C19.0239 29.8701 18.9649 25.2501 18.9649 25.2501C18.9649 25.2501 18.4929 25.52 18.4929 26.39C18.4929 26.5599 18.4899 27.09 18.4879 27.6799C18.4849 28.45 18.4809 29.35 18.4809 29.73C18.4809 30.5801 17.2549 31.0602 16.6659 31.0602C16.3679 31.0602 15.9969 31.04 15.9969 30.89C15.9969 30.73 16.1839 30.6 16.4059 30.4399C16.7259 30.21 17.1179 29.9301 17.1179 29.4501C17.1179 28.7401 17.1029 26.92 17.1029 26.92C17.1029 26.92 16.5369 27.0201 15.7309 27.0201C13.6969 27.0201 13.0549 25.7401 12.7489 25.03C12.3499 24.1 11.8339 23.6602 11.2859 23.3102C10.9489 23.1002 10.8719 22.85 11.2609 22.78C12.3419 22.5801 12.9399 23.3402 13.5049 24.0602C13.8809 24.5402 14.2429 24.9999 14.7229 25.15C15.5799 25.42 16.6829 25.3 17.2319 24.9501C17.3049 24.2401 17.8289 23.6201 18.2649 23.3C15.2079 23.0101 13.3959 21.97 12.4559 20.29V20.29Z" fill="#24292E"/>
</svg>
