<svg width="60" height="60" viewBox="0 0 60 60" fill="none" xmlns="http://www.w3.org/2000/svg">
<path fill-rule="evenodd" clip-rule="evenodd" d="M60 0H0V60H60V0ZM18.6839 30.4351C18.666 30.4351 18.0195 29.0699 18.0734 29.0699C17.6324 27.795 17.4359 26.3251 17.4359 24.6901C17.4359 21.8551 18.3209 20.7452 19.5179 19.2452C19.542 19.2153 19.5675 19.1851 19.5914 19.1551C18.6465 15.8551 19.9304 13.5902 19.9304 13.5902C19.9304 13.5902 21.9149 13.1852 25.6664 15.8251C27.6989 14.9702 33.1214 14.895 35.6849 15.63C37.2584 14.61 40.1384 13.1701 41.2994 13.5752C41.6144 14.0702 42.2924 15.51 41.712 18.705C41.7854 18.8401 41.9189 18.9901 42.0854 19.2001C42.8054 20.0551 44.1569 21.6901 44.1629 25.0951C44.1314 26.6551 43.9664 27.9599 43.6604 29.0699C43.7204 29.0699 43.2704 30.4501 43.1654 30.4501C41.8065 33.3751 39.0149 34.4701 34.5074 34.9351C35.9684 35.8351 36.3869 36.9749 36.3869 40.0349C36.3869 41.8949 36.3719 42.7799 36.3615 43.3349L36.3603 43.4079V43.4081C36.3549 43.7421 36.3512 43.968 36.3555 44.2201C36.3644 44.9401 37.0379 45.4351 37.5285 45.7801C37.5456 45.7931 37.5626 45.8059 37.5793 45.8186C37.8513 46.0241 38.0551 46.178 38.0324 46.3053C37.9679 46.6803 36.588 46.6199 35.9429 46.3949C34.1144 45.7649 34.2974 44.2801 34.2974 44.2801L34.2374 40.17C34.2374 40.17 34.3619 37.9653 33.5309 37.9653V44.6851C33.5309 45.5851 33.9329 46.1101 34.2374 46.5001C34.422 46.7251 34.5704 46.92 34.5704 47.13C34.5704 48.045 32.673 47.0401 32.0864 46.4551C31.2586 45.6467 31.2868 43.972 31.3108 42.5489L31.3109 42.5403C31.3139 42.4352 31.3155 42.345 31.3169 42.24C31.338 40.8149 31.3034 37.6949 31.3034 37.6949L30.6989 37.7099C30.6989 37.7099 30.9464 44.5201 30.3794 45.7501C29.6459 47.3551 27.4319 47.8951 27.4319 47.1751C27.4319 46.9651 27.5339 46.8749 27.6749 46.74C27.8595 46.5899 28.1069 46.3651 28.2794 45.7501C28.5359 44.8051 28.4474 37.8751 28.4474 37.8751C28.4474 37.8751 27.7394 38.2799 27.7394 39.5849C27.7394 39.8399 27.7349 40.635 27.7319 41.5199C27.7275 42.6749 27.7214 44.0251 27.7214 44.5951C27.7214 45.8701 25.8824 46.5903 24.999 46.5903C24.5519 46.5903 23.9954 46.56 23.9954 46.3349C23.9954 46.095 24.2759 45.9 24.6089 45.6599C25.089 45.3149 25.6769 44.8951 25.6769 44.1751C25.6769 43.1101 25.6544 40.38 25.6544 40.38C25.6544 40.38 24.8054 40.5301 23.5964 40.5301C20.5454 40.5301 19.5824 38.6101 19.1234 37.545C18.5249 36.1501 17.751 35.4902 16.9289 34.9653C16.4234 34.6502 16.3079 34.2751 16.8914 34.17C18.5129 33.8701 19.4099 35.0102 20.2574 36.0903C20.8214 36.8102 21.3644 37.4999 22.0844 37.7249C23.3699 38.13 25.0245 37.9501 25.8479 37.4251C25.9574 36.3601 26.7434 35.4301 27.3975 34.9501C22.8119 34.5151 20.0939 32.955 18.6839 30.4351Z" fill="#24292E"/>
</svg>
