<svg width="40" height="40" viewBox="0 0 40 40" fill="none" xmlns="http://www.w3.org/2000/svg">
<path fill-rule="evenodd" clip-rule="evenodd" d="M40 0H0V40H40V0V0ZM19.9423 21.1347L25.9423 28.5653L26 28.8769C25.9794 28.959 25.8971 29 25.7531 29H23C22.8353 29 22.6913 28.9262 22.5678 28.7826L18.0205 23.017L16.7531 24.2184V28.6882C16.7531 28.8932 16.6501 28.9958 16.4444 28.9958H14.3086C14.1029 28.9958 14 28.8932 14 28.6882V8.30756C14 8.10254 14.1029 8 14.3086 8H16.4444C16.6501 8 16.7531 8.10254 16.7531 8.30756V20.8558L22.1974 15.3731C22.3415 15.2296 22.4855 15.1558 22.6296 15.1558H25.4774C25.7654 15.1558 25.8024 15.4756 25.6955 15.5864L19.9423 21.1347V21.1347Z" fill="#20BEFF"/>
</svg>
