<svg width="60" height="60" viewBox="0 0 60 60" fill="none" xmlns="http://www.w3.org/2000/svg">
<path fill-rule="evenodd" clip-rule="evenodd" d="M60 0H0V60H60V0ZM21.138 18.5251C21.138 20.4901 19.6629 22.065 17.2959 22.065H17.253C14.9739 22.065 13.5 20.4901 13.5 18.5251C13.5 16.5301 15.0189 15 17.3409 15C19.6629 15 21.0939 16.5301 21.138 18.5251ZM45.1739 33.5552V45.2698H38.3849V34.3499C38.3849 31.6048 37.4024 29.7301 34.9454 29.7301C33.0704 29.7301 31.9529 30.99 31.4624 32.205C31.2824 32.64 31.2389 33.2552 31.2389 33.8701V45.2698H24.4484C24.4484 45.2698 24.5384 26.7601 24.4484 24.8551H31.2389V27.735C32.1389 26.355 33.7544 24.36 37.3574 24.36C41.8244 24.36 45.1739 27.2851 45.1739 33.5552ZM20.6909 24.8551V45.2698H13.9019V24.8551H20.6909Z" fill="#0073B0"/>
</svg>
