<svg width="40" height="40" viewBox="0 0 40 40" fill="none" xmlns="http://www.w3.org/2000/svg">
<path fill-rule="evenodd" clip-rule="evenodd" d="M40 0H0V40H40V0V0ZM14.092 12.3501C14.092 13.6601 13.1086 14.71 11.5306 14.71H11.502C9.9826 14.71 9 13.6601 9 12.3501C9 11.0201 10.0126 10 11.5606 10C13.1086 10 14.0626 11.0201 14.092 12.3501V12.3501ZM30.116 22.3702V30.18H25.59V22.9C25.59 21.07 24.935 19.8202 23.297 19.8202C22.047 19.8202 21.302 20.6601 20.975 21.4701C20.855 21.7601 20.826 22.1702 20.826 22.5802V30.18H16.299C16.299 30.18 16.359 17.8402 16.299 16.5702H20.826V18.4901C21.426 17.5701 22.503 16.2401 24.905 16.2401C27.883 16.2401 30.116 18.1901 30.116 22.3702V22.3702ZM13.794 16.5702V30.18H9.26799V16.5702H13.794V16.5702Z" fill="#0073B0"/>
</svg>
