<svg width="40" height="40" viewBox="0 0 40 40" fill="none" xmlns="http://www.w3.org/2000/svg">
<path fill-rule="evenodd" clip-rule="evenodd" d="M40 0H0V40H40V0V0ZM22.1567 13.725C20.2114 14.5341 16.3237 16.2086 10.4932 18.749C9.54641 19.1254 9.05031 19.4938 9.00539 19.8539C8.92873 20.4625 9.69143 20.7025 10.7295 21.0287C10.8706 21.0731 11.0166 21.119 11.1665 21.1677C12.1875 21.4998 13.5615 21.8881 14.2754 21.9036C14.9233 21.9174 15.646 21.6503 16.4443 21.1022C21.8921 17.4249 24.7041 15.5663 24.8804 15.5264C25.0049 15.4979 25.1777 15.4625 25.2944 15.5667C25.4116 15.6703 25.3999 15.8674 25.3877 15.9202C25.2886 16.3422 20.1714 20.9971 19.877 21.3029C19.7202 21.4658 19.5605 21.6198 19.4067 21.7678H19.4067C18.458 22.6824 17.7466 23.3682 19.4458 24.4879C20.2646 25.0275 20.9199 25.4735 21.5737 25.9188C22.2837 26.4025 22.9927 26.8854 23.9092 27.4863C24.1436 27.6398 24.3672 27.7993 24.585 27.9545C25.4136 28.5453 26.1577 29.0759 27.0776 28.9911C27.6118 28.942 28.1641 28.4395 28.4443 26.9406C29.1069 23.3986 30.4092 15.7241 30.7104 12.5618C30.7368 12.2847 30.7036 11.9301 30.6768 11.7744C30.6504 11.6187 30.5947 11.3969 30.3921 11.2328C30.1528 11.0383 29.7827 10.9973 29.6172 11.0001C28.8652 11.0134 27.7109 11.4147 22.1567 13.725V13.725Z" fill="#26A4E3"/>
</svg>
