<svg width="40" height="40" viewBox="0 0 40 40" fill="none" xmlns="http://www.w3.org/2000/svg">
<path fill-rule="evenodd" clip-rule="evenodd" d="M10.8014 19.4583C10.8014 14.4554 14.9028 10.3853 19.9449 10.3853C24.9864 10.3853 29.0885 14.4557 29.0885 19.4585C29.0885 24.4614 24.9864 28.5313 19.9449 28.5313C18.0877 28.5313 16.3582 27.9784 14.9143 27.0304L11.4007 28.1473L12.5429 24.778C11.4485 23.2821 10.8014 21.4435 10.8014 19.4583ZM25.3377 21.847C25.3818 21.8771 25.415 21.908 25.4366 21.9437C25.5028 22.054 25.5028 22.5837 25.2811 23.2018C25.0583 23.8193 23.9698 24.415 23.4817 24.4591C23.3979 24.4666 23.3285 24.4832 23.2574 24.5003C22.9132 24.5828 22.5284 24.675 20.2819 23.7975C17.7773 22.8185 16.1265 20.3887 15.7855 19.8869C15.7576 19.8457 15.7384 19.8175 15.7284 19.8042C15.5946 19.6279 14.6398 18.3703 14.6398 17.0687C14.6398 15.7673 15.3283 15.1273 15.5725 14.8623C15.817 14.5978 16.106 14.5316 16.2837 14.5316C16.3755 14.5316 16.4673 14.5374 16.556 14.5431C16.6391 14.5485 16.7195 14.5537 16.7947 14.5537C16.8133 14.5537 16.8329 14.5524 16.8534 14.5511C17.0036 14.5413 17.1989 14.5288 17.3943 14.9948C17.6163 15.5246 18.1497 16.8262 18.2165 16.9583C18.2831 17.091 18.3277 17.2454 18.2386 17.4219L18.2021 17.4956C18.1351 17.6318 18.0862 17.7313 17.9722 17.8633C17.9274 17.9152 17.881 17.9712 17.8347 18.027C17.7432 18.1374 17.6519 18.2477 17.5723 18.3265C17.4389 18.4582 17.2998 18.6012 17.4553 18.8659C17.6107 19.1309 18.1458 19.9964 18.9382 20.6974C19.7902 21.4513 20.5307 21.7699 20.9059 21.9315C20.9792 21.9631 21.0387 21.9886 21.0822 22.0103C21.3488 22.1426 21.5041 22.1204 21.6597 21.9437C21.7638 21.8257 22.0268 21.5205 22.2427 21.252C22.3497 21.1188 22.4452 20.9946 22.504 20.9069C22.6814 20.6421 22.8594 20.6867 23.1041 20.7747C23.348 20.8626 24.659 21.5029 24.9259 21.6351C25.106 21.7244 25.2455 21.7839 25.3377 21.847Z" fill="#25D366"/>
<path fill-rule="evenodd" clip-rule="evenodd" d="M40 0H0V40H40V0ZM14.6878 28.9072C16.2465 29.7625 18.038 30.25 19.9449 30.25C25.9516 30.25 30.8205 25.4185 30.8205 19.4583C30.8205 13.4982 25.9513 8.66667 19.9452 8.66667C13.9383 8.66667 9.06909 13.4982 9.06909 19.4583C9.06909 21.4969 9.63949 23.4041 10.6295 25.0304L8.66667 30.8205L14.6878 28.9072Z" fill="#25D366"/>
</svg>
